<svg width="1440" height="320" viewBox="0 0 1440 320" xmlns="http://www.w3.org/2000/svg">
  <path fill="#3B82F6" fill-opacity="0.4" d="M0,192L48,208C96,224,192,256,288,245.3C384,235,480,181,576,181.3C672,181,768,235,864,250.7C960,267,1056,245,1152,208C1248,171,1344,117,1392,90.7L1440,64L1440,320L1392,320C1344,320,1248,320,1152,320C1056,320,960,320,864,320C768,320,672,320,576,320C480,320,384,320,288,320C192,320,96,320,48,320L0,320Z"></path>
  <path fill="#3B82F6" fill-opacity="0.2" d="M0,224L48,234.7C96,245,192,267,288,261.3C384,256,480,224,576,202.7C672,181,768,171,864,186.7C960,203,1056,245,1152,261.3C1248,277,1344,267,1392,261.3L1440,256L1440,320L1392,320C1344,320,1248,320,1152,320C1056,320,960,320,864,320C768,320,672,320,576,320C480,320,384,320,288,320C192,320,96,320,48,320L0,320Z"></path>
</svg>